<mxfile host="app.diagrams.net" modified="2020-06-09T12:57:08.430Z" agent="5.0 (Windows NT 10.0; Win64; x64) AppleWebKit/537.36 (KHTML, like Gecko) Chrome/83.0.4103.61 Safari/537.36" etag="lFmScJX8lwoj9mNa6F0C" version="13.1.14" type="github">
  <diagram id="d-ELLbdBU_Qf9tfamwvt" name="Password Reset Workflow">
    <mxGraphModel dx="1422" dy="796" grid="0" gridSize="10" guides="1" tooltips="1" connect="1" arrows="1" fold="1" page="1" pageScale="1" pageWidth="850" pageHeight="1100" math="0" shadow="0">
      <root>
        <mxCell id="0" />
        <mxCell id="1" parent="0" />
        <mxCell id="xTq1jOs8BwpGX4ZQImrz-3" value="" style="edgeStyle=orthogonalEdgeStyle;rounded=0;orthogonalLoop=1;jettySize=auto;html=1;entryX=0;entryY=0.5;entryDx=0;entryDy=0;" parent="1" source="xTq1jOs8BwpGX4ZQImrz-1" target="xTq1jOs8BwpGX4ZQImrz-4" edge="1">
          <mxGeometry relative="1" as="geometry">
            <mxPoint x="300" y="110" as="targetPoint" />
          </mxGeometry>
        </mxCell>
        <mxCell id="xTq1jOs8BwpGX4ZQImrz-1" value="Netscaler Login&lt;br&gt;Forgot Password Link" style="rounded=1;whiteSpace=wrap;html=1;fillColor=#ffe6cc;strokeColor=#d79b00;" parent="1" vertex="1">
          <mxGeometry x="53" y="80" width="140" height="60" as="geometry" />
        </mxCell>
        <mxCell id="xTq1jOs8BwpGX4ZQImrz-6" value="" style="edgeStyle=orthogonalEdgeStyle;rounded=0;orthogonalLoop=1;jettySize=auto;html=1;" parent="1" source="xTq1jOs8BwpGX4ZQImrz-4" target="xTq1jOs8BwpGX4ZQImrz-5" edge="1">
          <mxGeometry relative="1" as="geometry" />
        </mxCell>
        <mxCell id="xTq1jOs8BwpGX4ZQImrz-4" value="2.0 Extensions &lt;br&gt;&lt;b&gt;&lt;u&gt;Password Reset Request Page&lt;br&gt;&lt;/u&gt;&lt;/b&gt;&lt;br&gt;Reset Form" style="rounded=0;whiteSpace=wrap;html=1;" parent="1" vertex="1">
          <mxGeometry x="559" y="70" width="183.75" height="80" as="geometry" />
        </mxCell>
        <mxCell id="xTq1jOs8BwpGX4ZQImrz-8" value="" style="edgeStyle=orthogonalEdgeStyle;rounded=0;orthogonalLoop=1;jettySize=auto;html=1;" parent="1" source="xTq1jOs8BwpGX4ZQImrz-5" target="xTq1jOs8BwpGX4ZQImrz-7" edge="1">
          <mxGeometry relative="1" as="geometry" />
        </mxCell>
        <mxCell id="xTq1jOs8BwpGX4ZQImrz-5" value="User enters &lt;br&gt;Username, &lt;br&gt;Email" style="shape=process;whiteSpace=wrap;html=1;backgroundOutline=1;" parent="1" vertex="1">
          <mxGeometry x="565.875" y="191" width="170" height="90" as="geometry" />
        </mxCell>
        <mxCell id="xTq1jOs8BwpGX4ZQImrz-15" value="" style="edgeStyle=orthogonalEdgeStyle;rounded=0;orthogonalLoop=1;jettySize=auto;html=1;" parent="1" source="xTq1jOs8BwpGX4ZQImrz-7" target="xTq1jOs8BwpGX4ZQImrz-13" edge="1">
          <mxGeometry relative="1" as="geometry">
            <mxPoint x="652.5" y="581" as="targetPoint" />
          </mxGeometry>
        </mxCell>
        <mxCell id="xTq1jOs8BwpGX4ZQImrz-17" value="" style="edgeStyle=orthogonalEdgeStyle;rounded=0;orthogonalLoop=1;jettySize=auto;html=1;" parent="1" source="xTq1jOs8BwpGX4ZQImrz-7" target="xTq1jOs8BwpGX4ZQImrz-11" edge="1">
          <mxGeometry relative="1" as="geometry">
            <mxPoint x="486.25" y="411" as="targetPoint" />
          </mxGeometry>
        </mxCell>
        <mxCell id="xTq1jOs8BwpGX4ZQImrz-7" value="Checks AD &lt;br&gt;for Username &lt;br&gt;and validates matching&lt;br&gt;Email" style="rhombus;whiteSpace=wrap;html=1;" parent="1" vertex="1">
          <mxGeometry x="564.625" y="321" width="172.5" height="180" as="geometry" />
        </mxCell>
        <mxCell id="xTq1jOs8BwpGX4ZQImrz-9" value="2.0 User" style="shape=umlActor;verticalLabelPosition=bottom;labelBackgroundColor=#ffffff;verticalAlign=top;html=1;outlineConnect=0;" parent="1" vertex="1">
          <mxGeometry x="16" y="80" width="30" height="60" as="geometry" />
        </mxCell>
        <mxCell id="xTq1jOs8BwpGX4ZQImrz-11" value="2.0 Extensions&amp;nbsp;&lt;br&gt;&lt;b&gt;&lt;u&gt;Password Reset Request Page&lt;br&gt;&lt;/u&gt;&lt;/b&gt;&lt;br&gt;Resent Link sent to email Message" style="rounded=0;whiteSpace=wrap;html=1;fillColor=#dae8fc;strokeColor=#6c8ebf;" parent="1" vertex="1">
          <mxGeometry x="270" y="375" width="185" height="72" as="geometry" />
        </mxCell>
        <mxCell id="xTq1jOs8BwpGX4ZQImrz-25" value="" style="edgeStyle=orthogonalEdgeStyle;rounded=0;orthogonalLoop=1;jettySize=auto;html=1;entryX=1;entryY=0.5;entryDx=0;entryDy=0;" parent="1" source="xTq1jOs8BwpGX4ZQImrz-13" target="xTq1jOs8BwpGX4ZQImrz-23" edge="1">
          <mxGeometry relative="1" as="geometry">
            <mxPoint x="491.8800000000001" y="641" as="targetPoint" />
          </mxGeometry>
        </mxCell>
        <mxCell id="xTq1jOs8BwpGX4ZQImrz-13" value="Secure Token created for Username,&lt;br&gt;24 hour expiration,&lt;br&gt;signed with KeyVault" style="shape=process;whiteSpace=wrap;html=1;backgroundOutline=1;" parent="1" vertex="1">
          <mxGeometry x="570.2499999999999" y="601" width="161.25" height="80" as="geometry" />
        </mxCell>
        <mxCell id="xTq1jOs8BwpGX4ZQImrz-18" value="Email&amp;nbsp;&lt;b&gt;&lt;u&gt;does match &lt;/u&gt;&lt;/b&gt;with AD User" style="text;html=1;strokeColor=none;fillColor=none;align=center;verticalAlign=middle;whiteSpace=wrap;rounded=0;" parent="1" vertex="1">
          <mxGeometry x="660.005" y="531" width="120" height="20" as="geometry" />
        </mxCell>
        <mxCell id="xTq1jOs8BwpGX4ZQImrz-19" value="Email&amp;nbsp;&lt;b&gt;&lt;u&gt;does not&lt;/u&gt;&lt;/b&gt; match up with AD User" style="text;html=1;strokeColor=none;fillColor=none;align=center;verticalAlign=middle;whiteSpace=wrap;rounded=0;" parent="1" vertex="1">
          <mxGeometry x="461.88" y="361" width="110" height="20" as="geometry" />
        </mxCell>
        <mxCell id="AxbIXuEYecjZlMj8pC54-8" value="" style="edgeStyle=orthogonalEdgeStyle;rounded=0;orthogonalLoop=1;jettySize=auto;html=1;" parent="1" source="xTq1jOs8BwpGX4ZQImrz-22" target="AxbIXuEYecjZlMj8pC54-2" edge="1">
          <mxGeometry relative="1" as="geometry" />
        </mxCell>
        <mxCell id="xTq1jOs8BwpGX4ZQImrz-22" value="2.0 Extensions Reset Password Email" style="rounded=1;whiteSpace=wrap;html=1;fillColor=#ffe6cc;strokeColor=#d79b00;" parent="1" vertex="1">
          <mxGeometry x="53" y="750" width="140" height="60" as="geometry" />
        </mxCell>
        <mxCell id="xTq1jOs8BwpGX4ZQImrz-27" value="" style="edgeStyle=orthogonalEdgeStyle;rounded=0;orthogonalLoop=1;jettySize=auto;html=1;entryX=0.5;entryY=1;entryDx=0;entryDy=0;" parent="1" source="xTq1jOs8BwpGX4ZQImrz-23" target="xTq1jOs8BwpGX4ZQImrz-11" edge="1">
          <mxGeometry relative="1" as="geometry">
            <mxPoint x="367.5" y="521" as="targetPoint" />
          </mxGeometry>
        </mxCell>
        <mxCell id="xTq1jOs8BwpGX4ZQImrz-23" value="Email Sent to User&#39;s Email in AD with reset password link including secure token" style="shape=process;whiteSpace=wrap;html=1;backgroundOutline=1;" parent="1" vertex="1">
          <mxGeometry x="271.25" y="601" width="182.5" height="80" as="geometry" />
        </mxCell>
        <mxCell id="AxbIXuEYecjZlMj8pC54-1" value="2.0 User" style="shape=umlActor;verticalLabelPosition=bottom;labelBackgroundColor=#ffffff;verticalAlign=top;html=1;outlineConnect=0;" parent="1" vertex="1">
          <mxGeometry x="16" y="750" width="30" height="60" as="geometry" />
        </mxCell>
        <mxCell id="AxbIXuEYecjZlMj8pC54-5" value="" style="edgeStyle=orthogonalEdgeStyle;rounded=0;orthogonalLoop=1;jettySize=auto;html=1;" parent="1" source="AxbIXuEYecjZlMj8pC54-2" target="AxbIXuEYecjZlMj8pC54-4" edge="1">
          <mxGeometry relative="1" as="geometry" />
        </mxCell>
        <mxCell id="AxbIXuEYecjZlMj8pC54-10" value="" style="edgeStyle=orthogonalEdgeStyle;rounded=0;orthogonalLoop=1;jettySize=auto;html=1;entryX=0;entryY=0.5;entryDx=0;entryDy=0;" parent="1" source="AxbIXuEYecjZlMj8pC54-2" target="AxbIXuEYecjZlMj8pC54-3" edge="1">
          <mxGeometry relative="1" as="geometry">
            <mxPoint x="550" y="780" as="targetPoint" />
          </mxGeometry>
        </mxCell>
        <mxCell id="AxbIXuEYecjZlMj8pC54-2" value="Token parameter validated,&lt;br&gt;with Valid Signing Key,&lt;br&gt;within Expiration Date,&lt;br&gt;with token in DB" style="shape=process;whiteSpace=wrap;html=1;backgroundOutline=1;" parent="1" vertex="1">
          <mxGeometry x="267.5" y="735" width="190" height="90" as="geometry" />
        </mxCell>
        <mxCell id="AxbIXuEYecjZlMj8pC54-17" value="" style="edgeStyle=orthogonalEdgeStyle;rounded=0;orthogonalLoop=1;jettySize=auto;html=1;" parent="1" source="AxbIXuEYecjZlMj8pC54-3" target="AxbIXuEYecjZlMj8pC54-13" edge="1">
          <mxGeometry relative="1" as="geometry">
            <mxPoint x="633.1300000000001" y="905" as="targetPoint" />
          </mxGeometry>
        </mxCell>
        <mxCell id="AxbIXuEYecjZlMj8pC54-3" value="2.0 Extensions&lt;br&gt;Password Reset Confirm Page&lt;br&gt;Reset Password Form:&lt;br&gt;New Password&lt;br&gt;Confirm Password&lt;br&gt;(hidden) Token" style="rounded=0;whiteSpace=wrap;html=1;" parent="1" vertex="1">
          <mxGeometry x="537.9999999999998" y="735" width="190" height="90" as="geometry" />
        </mxCell>
        <mxCell id="AxbIXuEYecjZlMj8pC54-4" value="2.0 Extensions&amp;nbsp;&lt;br&gt;&lt;b&gt;&lt;u&gt;Password Reset Confirm Page&lt;br&gt;&lt;/u&gt;&lt;/b&gt;&lt;br&gt;Error Message:&lt;br&gt;Token Invalid&lt;br&gt;Token has expired&lt;br&gt;Token has already been used" style="rounded=0;whiteSpace=wrap;html=1;fillColor=#f8cecc;strokeColor=#b85450;" parent="1" vertex="1">
          <mxGeometry x="263.75" y="912" width="197.5" height="125" as="geometry" />
        </mxCell>
        <mxCell id="AxbIXuEYecjZlMj8pC54-6" value="Token Invalid" style="text;html=1;strokeColor=none;fillColor=none;align=center;verticalAlign=middle;whiteSpace=wrap;rounded=0;" parent="1" vertex="1">
          <mxGeometry x="377" y="873" width="40" height="20" as="geometry" />
        </mxCell>
        <mxCell id="AxbIXuEYecjZlMj8pC54-11" value="Token&amp;nbsp;&lt;br&gt;Valid" style="text;html=1;strokeColor=none;fillColor=none;align=center;verticalAlign=middle;whiteSpace=wrap;rounded=0;" parent="1" vertex="1">
          <mxGeometry x="480" y="750" width="40" height="20" as="geometry" />
        </mxCell>
        <mxCell id="AxbIXuEYecjZlMj8pC54-23" value="" style="edgeStyle=orthogonalEdgeStyle;rounded=0;orthogonalLoop=1;jettySize=auto;html=1;" parent="1" source="AxbIXuEYecjZlMj8pC54-34" edge="1">
          <mxGeometry relative="1" as="geometry">
            <mxPoint x="729.69" y="1175" as="sourcePoint" />
            <mxPoint x="800" y="990" as="targetPoint" />
          </mxGeometry>
        </mxCell>
        <mxCell id="AxbIXuEYecjZlMj8pC54-27" value="" style="edgeStyle=orthogonalEdgeStyle;rounded=0;orthogonalLoop=1;jettySize=auto;html=1;" parent="1" source="AxbIXuEYecjZlMj8pC54-34" target="AxbIXuEYecjZlMj8pC54-26" edge="1">
          <mxGeometry relative="1" as="geometry">
            <mxPoint x="633.1300000000001" y="1230" as="sourcePoint" />
          </mxGeometry>
        </mxCell>
        <mxCell id="AxbIXuEYecjZlMj8pC54-32" value="" style="edgeStyle=orthogonalEdgeStyle;rounded=0;orthogonalLoop=1;jettySize=auto;html=1;" parent="1" source="AxbIXuEYecjZlMj8pC54-26" target="AxbIXuEYecjZlMj8pC54-29" edge="1">
          <mxGeometry relative="1" as="geometry" />
        </mxCell>
        <mxCell id="AxbIXuEYecjZlMj8pC54-26" value="AD User Acquired&lt;br&gt;AD Password Updated&lt;br&gt;Token marked as used &amp;amp; deleted" style="shape=process;whiteSpace=wrap;html=1;backgroundOutline=1;" parent="1" vertex="1">
          <mxGeometry x="536.4399999999998" y="1310" width="193.12" height="80" as="geometry" />
        </mxCell>
        <mxCell id="AxbIXuEYecjZlMj8pC54-14" value="" style="edgeStyle=orthogonalEdgeStyle;rounded=0;orthogonalLoop=1;jettySize=auto;html=1;" parent="1" source="AxbIXuEYecjZlMj8pC54-13" target="AxbIXuEYecjZlMj8pC54-34" edge="1">
          <mxGeometry relative="1" as="geometry">
            <mxPoint x="633.1300000000001" y="1120" as="targetPoint" />
          </mxGeometry>
        </mxCell>
        <mxCell id="AxbIXuEYecjZlMj8pC54-19" value="" style="edgeStyle=orthogonalEdgeStyle;rounded=0;orthogonalLoop=1;jettySize=auto;html=1;" parent="1" source="AxbIXuEYecjZlMj8pC54-13" target="AxbIXuEYecjZlMj8pC54-3" edge="1">
          <mxGeometry relative="1" as="geometry">
            <mxPoint x="820" y="770" as="targetPoint" />
            <Array as="points">
              <mxPoint x="800" y="975" />
              <mxPoint x="800" y="780" />
            </Array>
          </mxGeometry>
        </mxCell>
        <mxCell id="AxbIXuEYecjZlMj8pC54-13" value="Form Validation:&lt;br&gt;Password entries match,&lt;br&gt;Password &amp;gt; 8= char&lt;br&gt;Password includes &lt;br&gt;&amp;gt;= 1 upper &lt;br&gt;&amp;gt;= 1 lower &lt;br&gt;&amp;gt;= 1 numeric" style="shape=process;whiteSpace=wrap;html=1;backgroundOutline=1;" parent="1" vertex="1">
          <mxGeometry x="536.4400000000003" y="910" width="193.12" height="130" as="geometry" />
        </mxCell>
        <mxCell id="AxbIXuEYecjZlMj8pC54-15" value="Form Valid,&lt;br&gt;submit enabled" style="text;html=1;strokeColor=none;fillColor=none;align=center;verticalAlign=middle;whiteSpace=wrap;rounded=0;" parent="1" vertex="1">
          <mxGeometry x="638.13" y="1070" width="90" height="20" as="geometry" />
        </mxCell>
        <mxCell id="AxbIXuEYecjZlMj8pC54-21" value="Form Invalid,&lt;br&gt;error message" style="text;html=1;strokeColor=none;fillColor=none;align=center;verticalAlign=middle;whiteSpace=wrap;rounded=0;" parent="1" vertex="1">
          <mxGeometry x="712" y="847" width="90" height="20" as="geometry" />
        </mxCell>
        <mxCell id="AxbIXuEYecjZlMj8pC54-24" value="Invalid" style="text;html=1;strokeColor=none;fillColor=none;align=center;verticalAlign=middle;whiteSpace=wrap;rounded=0;" parent="1" vertex="1">
          <mxGeometry x="752" y="1136" width="40" height="20" as="geometry" />
        </mxCell>
        <mxCell id="AxbIXuEYecjZlMj8pC54-28" value="Valid Token" style="text;html=1;strokeColor=none;fillColor=none;align=center;verticalAlign=middle;whiteSpace=wrap;rounded=0;" parent="1" vertex="1">
          <mxGeometry x="640" y="1260" width="70" height="20" as="geometry" />
        </mxCell>
        <mxCell id="AxbIXuEYecjZlMj8pC54-29" value="2.0 Extensions&lt;br&gt;&lt;b&gt;&lt;u&gt;Password Reset Confirm Page&lt;br&gt;&lt;/u&gt;&lt;/b&gt;&lt;br&gt;Password Updated Message&lt;br&gt;Link to Netscaler Login" style="rounded=0;whiteSpace=wrap;html=1;fillColor=#dae8fc;strokeColor=#6c8ebf;" parent="1" vertex="1">
          <mxGeometry x="262.5" y="1300" width="200" height="100" as="geometry" />
        </mxCell>
        <mxCell id="AxbIXuEYecjZlMj8pC54-34" value="&lt;span&gt;Re-Validate&lt;br&gt;&lt;/span&gt;Token and &lt;br&gt;Password" style="rhombus;whiteSpace=wrap;html=1;" parent="1" vertex="1">
          <mxGeometry x="556" y="1106" width="154" height="125" as="geometry" />
        </mxCell>
      </root>
    </mxGraphModel>
  </diagram>
</mxfile>
